<svg
  viewBox="3.405 50.055 204.827 193.618"
  version="1.1"
  xmlns="http://www.w3.org/2000/svg">
  <path
    style="fill:#000000;stroke-width:0.400308"
    d="m 13.591716,243.19092 c -8.90391,-1.64466 -11.4585727,-3.47737 -9.6331879,-6.91089 0.3160762,-0.59453 13.9165619,-14.41078 30.2233039,-30.7028 27.234846,-27.21021 29.648619,-29.72884 29.648619,-30.93668 0,-0.72318 0.277698,-1.98461 0.617104,-2.80317 0.434612,-1.04818 12.535438,-13.41293 40.919245,-41.8117 22.16615,-22.17788 40.42364,-40.19177 40.57219,-40.03088 0.14857,0.160905 3.29268,7.286349 6.98696,15.83433 l 6.71688,15.54177 -31.59362,31.60984 c -35.834444,35.85287 -34.012376,34.2922 -39.547272,33.87359 l -2.939855,-0.22233 -3.936919,3.95174 -3.936915,3.95175 0.937647,4.95173 c 0.515705,2.72345 0.827446,5.39079 0.692762,5.92743 -0.381659,1.52065 -27.878992,28.59847 -31.403314,30.92422 -4.082592,2.69416 -9.082656,4.94745 -13.625345,6.1403 -3.258097,0.85552 -4.983918,1.04306 -10.690567,1.16174 -4.833025,0.10046 -7.733352,-0.03 -10.007716,-0.44999 z m 24.919213,-15.23481 c 1.927205,-2.15686 0.430778,-5.36678 -2.501928,-5.36678 -2.754199,0 -4.318995,2.91696 -2.759328,5.14369 1.32579,1.89284 3.680099,1.99267 5.261256,0.22309 z M 48.805347,217.7992 c 4.069834,-4.08248 4.373227,-4.49507 4.333598,-5.8933 -0.05249,-1.85183 -1.560885,-3.32736 -3.401444,-3.32736 -1.035987,0 -1.945335,0.69661 -5.562993,4.26153 -4.496255,4.43071 -5.239051,5.70609 -4.323838,7.42401 0.731964,1.37397 1.600891,1.89802 3.170559,1.91223 1.264993,0.0121 1.852126,-0.43288 5.784118,-4.37711 z M 164.41493,115.00641 c -0.14752,-0.38531 -3.19906,-7.45576 -6.78124,-15.712123 l -6.51307,-15.011568 4.0354,-4.003096 c 2.21948,-2.201701 4.11026,-3.822947 4.20176,-3.602779 0.0915,0.220169 3.20992,7.335658 6.92982,15.812191 l 6.76345,15.411885 -3.86368,3.90301 c -2.12502,2.14666 -4.00781,3.90302 -4.18397,3.90302 -0.17617,0 -0.44099,-0.31525 -0.58847,-0.70054 z m 13.73865,-12.85331 c -0.59178,-0.9575 -13.44536,-30.645699 -13.44536,-31.05502 0,-0.444543 7.21919,-7.831578 7.65364,-7.831578 0.26843,0 14.76363,29.722269 14.76363,30.272675 0,0.693807 -8.70281,9.049363 -8.97191,8.613923 z m 7.06538,-28.759954 c -4.02089,-8.321771 -7.30842,-15.340562 -7.30564,-15.597301 0.0106,-0.904807 5.0404,-5.05668 7.59277,-6.266556 3.25106,-1.541056 7.82997,-1.918353 11.18601,-0.921714 7.66474,2.276186 12.66966,10.156669 11.31929,17.822792 -0.83442,4.737118 -1.88429,6.31706 -8.96392,13.489777 l -6.5178,6.603512 z" />
</svg>
