<?xml version="1.0" encoding="UTF-8" standalone="no"?>
<!-- Created with Inkscape (http://www.inkscape.org/) -->

<svg
   width="210mm"
   height="297mm"
   viewBox="0 0 210 297"
   version="1.1"
   id="svg5"
   xml:space="preserve"
   xmlns="http://www.w3.org/2000/svg"
   xmlns:svg="http://www.w3.org/2000/svg"><defs
     id="defs2" /><g
     id="layer1"><path
       style="fill:#000000;stroke-width:0.264583"
       d="m 43.337456,210.53111 c -5.885024,-1.08703 -7.573524,-2.29836 -6.367039,-4.56774 0.20891,-0.39295 9.198128,-9.52478 19.976041,-20.29296 18.000825,-17.98454 19.596204,-19.64923 19.596204,-20.44755 0,-0.47798 0.183544,-1.31172 0.407874,-1.85275 0.287256,-0.69279 8.285276,-8.86525 27.045504,-27.63537 14.65068,-14.65843 26.71794,-26.56468 26.81612,-26.45834 0.0982,0.10635 2.17629,4.8159 4.61802,10.46567 l 4.43951,10.27231 -20.88175,20.89247 c -23.684714,23.69689 -22.480421,22.66537 -26.138701,22.38869 l -1.943092,-0.14695 -2.6021,2.6119 -2.602097,2.6119 0.619736,3.27284 c 0.340854,1.80006 0.546899,3.56303 0.45788,3.91772 -0.252257,1.00507 -18.426572,18.90211 -20.755967,20.43931 -2.698382,1.7807 -6.003166,3.27001 -9.005648,4.05842 -2.153434,0.56546 -3.294112,0.68941 -7.065912,0.76785 -3.19438,0.0664 -5.111346,-0.0198 -6.614583,-0.29742 z m 16.470311,-10.06942 c 1.273783,-1.42557 0.284722,-3.54716 -1.653645,-3.54716 -1.820383,0 -2.854632,1.92796 -1.823773,3.39971 0.876279,1.25107 2.432355,1.31705 3.477418,0.14745 z m 6.804078,-6.71319 c 2.68995,-2.69831 2.890477,-2.97101 2.864284,-3.89517 -0.03469,-1.22396 -1.031664,-2.19921 -2.248178,-2.19921 -0.684734,0 -1.285766,0.46042 -3.676851,2.81665 -2.971792,2.92847 -3.462742,3.77143 -2.857833,4.90689 0.48379,0.90812 1.058106,1.25449 2.095575,1.26388 0.836095,0.008 1.22416,-0.28611 3.823003,-2.89304 z M 143.0238,125.80778 c -0.0975,-0.25467 -2.11441,-4.92787 -4.48205,-10.3849 l -4.3048,-9.92187 2.66719,-2.64584 c 1.46696,-1.45521 2.71667,-2.52677 2.77715,-2.38125 0.0605,0.14552 2.12159,4.84849 4.58025,10.45104 l 4.47029,10.18646 -2.55369,2.57969 c -1.40453,1.41883 -2.64896,2.57969 -2.76539,2.57969 -0.11644,0 -0.29147,-0.20836 -0.38895,-0.46302 z m 9.08054,-8.49537 c -0.39114,-0.63286 -8.88669,-20.255225 -8.88669,-20.525765 0,-0.29382 4.77151,-5.176268 5.05866,-5.176268 0.17742,0 9.758,19.644883 9.758,20.008673 0,0.45857 -5.75211,5.98116 -5.92997,5.69336 z m 4.66985,-19.008845 c -2.6576,-5.50026 -4.83049,-10.139318 -4.82865,-10.309009 0.007,-0.598031 3.33144,-3.342204 5.01843,-4.14187 2.14878,-1.018558 5.1752,-1.267932 7.39337,-0.609205 5.066,1.504441 8.37399,6.713033 7.48147,11.779944 -0.55151,3.13099 -1.24542,4.17525 -5.92469,8.916045 l -4.30793,4.36458 z"
       id="path179" /></g></svg>
